<?xml version="1.0"?>
<svg xmlns="http://www.w3.org/2000/svg" id="Layer_1" data-name="Layer 1" viewBox="0 0 64 64"><title>Icons8 RSL Colored Part 10</title><rect x="5" y="9" width="54" height="10" style="fill:#ced8ed;"/><rect x="5" y="19" width="54" height="36" style="fill:#85cbf8;"/><rect x="11" y="25.12" width="10" height="8" rx="1" ry="1" style="fill:#ace3ff;"/><rect x="27" y="25.12" width="10" height="8" rx="1" ry="1" style="fill:#ace3ff;"/><rect x="43" y="25.12" width="10" height="8" rx="1" ry="1" style="fill:#ace3ff;"/><rect x="11" y="39.12" width="10" height="8" rx="1" ry="1" style="fill:#ace3ff;"/><rect x="27" y="39.12" width="10" height="8" rx="1" ry="1" style="fill:#ace3ff;"/><rect x="43" y="39.12" width="10" height="8" rx="1" ry="1" style="fill:#ace3ff;"/><path d="M57,8H7a3,3,0,0,0-3,3V53a3,3,0,0,0,3,3H57a3,3,0,0,0,3-3V11A3,3,0,0,0,57,8ZM7,10H57a1,1,0,0,1,1,1v7H6V11A1,1,0,0,1,7,10ZM57,54H7a1,1,0,0,1-1-1V20H58V53A1,1,0,0,1,57,54Z" style="fill:#8d6c9f;"/><path d="M19,16a1,1,0,0,0,1-1V13a1,1,0,0,0-2,0v2A1,1,0,0,0,19,16Z" style="fill:#8d6c9f;"/><path d="M14,16a1,1,0,0,0,1-1V13a1,1,0,0,0-2,0v2A1,1,0,0,0,14,16Z" style="fill:#8d6c9f;"/><path d="M9,16a1,1,0,0,0,1-1V13a1,1,0,0,0-2,0v2A1,1,0,0,0,9,16Z" style="fill:#8d6c9f;"/><path d="M34,16a1,1,0,0,0,1-1V13a1,1,0,0,0-2,0v2A1,1,0,0,0,34,16Z" style="fill:#8d6c9f;"/><path d="M39,16a1,1,0,0,0,1-1V13a1,1,0,0,0-2,0v2A1,1,0,0,0,39,16Z" style="fill:#8d6c9f;"/><path d="M44,16a1,1,0,0,0,1-1V13a1,1,0,0,0-2,0v2A1,1,0,0,0,44,16Z" style="fill:#8d6c9f;"/><path d="M49,16a1,1,0,0,0,1-1V13a1,1,0,0,0-2,0v2A1,1,0,0,0,49,16Z" style="fill:#8d6c9f;"/><path d="M54,16a1,1,0,0,0,1-1V13a1,1,0,0,0-2,0v2A1,1,0,0,0,54,16Z" style="fill:#8d6c9f;"/><path d="M24,16a1,1,0,0,0,1-1V13a1,1,0,0,0-2,0v2A1,1,0,0,0,24,16Z" style="fill:#8d6c9f;"/><path d="M29,16a1,1,0,0,0,1-1V13a1,1,0,0,0-2,0v2A1,1,0,0,0,29,16Z" style="fill:#8d6c9f;"/><path d="M20,24.12H12a2,2,0,0,0-2,2v6a2,2,0,0,0,2,2h8a2,2,0,0,0,2-2v-6A2,2,0,0,0,20,24.12Zm-8,8v-6h8v6Z" style="fill:#8d6c9f;"/><path d="M36,24.12H28a2,2,0,0,0-2,2v6a2,2,0,0,0,2,2h8a2,2,0,0,0,2-2v-6A2,2,0,0,0,36,24.12Zm-8,8v-6h8v6Z" style="fill:#8d6c9f;"/><path d="M52,24.12H44a2,2,0,0,0-2,2v6a2,2,0,0,0,2,2h8a2,2,0,0,0,2-2v-6A2,2,0,0,0,52,24.12Zm-8,8v-6h8v6Z" style="fill:#8d6c9f;"/><path d="M20,38.12H12a2,2,0,0,0-2,2v6a2,2,0,0,0,2,2h8a2,2,0,0,0,2-2v-6A2,2,0,0,0,20,38.12Zm-8,8v-6h8v6Z" style="fill:#8d6c9f;"/><path d="M36,38.12H28a2,2,0,0,0-2,2v6a2,2,0,0,0,2,2h8a2,2,0,0,0,2-2v-6A2,2,0,0,0,36,38.12Zm-8,8v-6h8v6Z" style="fill:#8d6c9f;"/><path d="M52,38.12H44a2,2,0,0,0-2,2v6a2,2,0,0,0,2,2h8a2,2,0,0,0,2-2v-6A2,2,0,0,0,52,38.12Zm-8,8v-6h8v6Z" style="fill:#8d6c9f;"/></svg>
